CalSansUI-Regular.ufo
<glyph name="dollar" format="2">
  <advance width="583.0"/>
  <unicode hex="0024"/>
  <anchor x="307.75" y="653.0" name="_TopCurrency"/>
  <outline>
    <contour>
      <point x="298.75" y="27.0" type="curve" smooth="yes"/>
      <point x="436.75" y="27.0"/>
      <point x="536.0" y="95.5"/>
      <point x="536.0" y="221.75" type="curve" smooth="yes"/>
      <point x="536.0" y="461.5"/>
      <point x="187.5" y="356.0"/>
      <point x="187.5" y="497.0" type="curve" smooth="yes"/>
      <point x="187.5" y="550.5"/>
      <point x="231.0" y="583.25"/>
      <point x="309.75" y="583.25" type="curve" smooth="yes"/>
      <point x="370.0" y="583.25"/>
      <point x="416.5" y="555.0"/>
      <point x="451.25" y="498.5" type="curve"/>
      <point x="531.25" y="551.5" type="line"/>
      <point x="483.5" y="623.75"/>
      <point x="417.0" y="672.75"/>
      <point x="314.0" y="672.75" type="curve" smooth="yes"/>
      <point x="172.75" y="672.75"/>
      <point x="86.75" y="591.5"/>
      <point x="86.75" y="489.5" type="curve" smooth="yes"/>
      <point x="86.75" y="256.75"/>
      <point x="434.5" y="363.0"/>
      <point x="434.5" y="214.5" type="curve" smooth="yes"/>
      <point x="434.5" y="144.5"/>
      <point x="374.0" y="117.5"/>
      <point x="304.0" y="117.5" type="curve" smooth="yes"/>
      <point x="230.25" y="117.5"/>
      <point x="173.0" y="148.75"/>
      <point x="129.75" y="219.5" type="curve"/>
      <point x="48.5" y="164.0" type="line"/>
      <point x="105.5" y="74.25"/>
      <point x="192.25" y="27.0"/>
    </contour>
    <component base="verticalTopCurrencycomb" xOffset="307.75"/>
    <component base="verticalBottomCurrencycomb" xOffset="307.75"/>
  </outline>
</glyph>
<glyph name="ampersand" format="2">
  <advance width="671.5"/>
  <unicode hex="0026"/>
  <outline>
    <contour>
      <point x="273.75" y="-13.0" type="curve" smooth="yes"/>
      <point x="343.75" y="-13.0"/>
      <point x="411.5" y="17.0"/>
      <point x="452.25" y="61.0" type="curve" smooth="yes"/>
      <point x="505.0" y="115.5" type="line"/>
      <point x="623.5" y="242.75" type="line"/>
      <point x="560.0" y="298.0" type="line"/>
      <point x="457.75" y="185.0" type="line"/>
      <point x="396.75" y="127.75" type="line" smooth="yes"/>
      <point x="359.5" y="91.75"/>
      <point x="318.5" y="74.0"/>
      <point x="274.0" y="74.0" type="curve" smooth="yes"/>
      <point x="201.25" y="74.0"/>
      <point x="158.0" y="124.25"/>
      <point x="158.0" y="184.5" type="curve" smooth="yes"/>
      <point x="158.0" y="231.0"/>
      <point x="177.75" y="263.75"/>
      <point x="223.5" y="293.5" type="curve" smooth="yes"/>
      <point x="365.75" y="386.0" type="line" smooth="yes"/>
      <point x="445.0" y="437.25"/>
      <point x="478.25" y="505.0"/>
      <point x="477.5" y="558.25" type="curve" smooth="yes"/>
      <point x="476.75" y="652.75"/>
      <point x="405.25" y="713.0"/>
      <point x="303.5" y="713.0" type="curve" smooth="yes"/>
      <point x="198.5" y="713.0"/>
      <point x="125.25" y="647.25"/>
      <point x="125.25" y="547.75" type="curve" smooth="yes"/>
      <point x="125.25" y="504.75"/>
      <point x="144.75" y="458.5"/>
      <point x="187.5" y="407.25" type="curve" smooth="yes"/>
      <point x="432.0" y="115.25" type="line"/>
      <point x="455.25" y="99.0" type="line"/>
      <point x="525.5" y="0.0" type="line"/>
      <point x="646.5" y="0.0" type="line"/>
      <point x="265.25" y="462.5" type="line" smooth="yes"/>
      <point x="238.0" y="495.5"/>
      <point x="221.25" y="520.5"/>
      <point x="221.25" y="554.0" type="curve" smooth="yes"/>
      <point x="221.25" y="599.75"/>
      <point x="255.0" y="629.25"/>
      <point x="304.5" y="629.25" type="curve" smooth="yes"/>
      <point x="351.5" y="629.25"/>
      <point x="382.75" y="598.5"/>
      <point x="383.5" y="554.0" type="curve" smooth="yes"/>
      <point x="384.25" y="514.75"/>
      <point x="355.5" y="476.5"/>
      <point x="292.25" y="439.5" type="curve" smooth="yes"/>
      <point x="178.25" y="373.0" type="line" smooth="yes"/>
      <point x="106.25" y="330.75"/>
      <point x="60.0" y="261.5"/>
      <point x="60.0" y="185.75" type="curve" smooth="yes"/>
      <point x="60.0" y="73.25"/>
      <point x="136.5" y="-13.0"/>
    </contour>
  </outline>
</glyph>
<glyph name="parenright" format="2">
  <advance width="335.0"/>
  <unicode hex="0029"/>
  <outline>
    <contour>
      <point x="119.75" y="-214.0" type="line"/>
      <point x="306.75" y="65.0"/>
      <point x="305.75" y="545.0"/>
      <point x="119.75" y="803.0" type="curve"/>
      <point x="45.25" y="762.5" type="line"/>
      <point x="218.5" y="543.75"/>
      <point x="212.5" y="88.5"/>
      <point x="45.25" y="-172.75" type="curve"/>
    </contour>
  </outline>
</glyph>
<glyph name="comma" format="2">
  <advance width="221.5"/>
  <unicode hex="002C"/>
  <outline>
    <contour>
      <point x="76.25" y="123.5" type="line"/>
      <point x="70.5" y="57.75" type="line" smooth="yes"/>
      <point x="60.75" y="-40.5"/>
      <point x="37.25" y="-109.25"/>
      <point x="9.0" y="-162.0" type="curve"/>
      <point x="41.0" y="-181.25" type="line"/>
      <point x="106.0" y="-129.75"/>
      <point x="138.0" y="-54.5"/>
      <point x="158.75" y="57.0" type="curve" smooth="yes"/>
      <point x="169.25" y="114.0" type="line"/>
    </contour>
  </outline>
</glyph>
<glyph name="A" format="2">
  <advance width="698.25"/>
  <unicode hex="0041"/>
  <anchor x="355.25" y="0.0" name="bottom"/>
  <anchor x="580.75" y="0.0" name="ogonek"/>
  <anchor x="349.5" y="700.0" name="top"/>
  <anchor x="349.5" y="619.0" name="top_ring"/>
  <outline>
    <contour>
      <point x="12.5" y="0.0" type="line"/>
      <point x="117.75" y="0.0" type="line"/>
      <point x="186.25" y="174.25" type="line"/>
      <point x="199.0" y="207.75" type="line"/>
      <point x="310.5" y="481.75" type="line" smooth="yes"/>
      <point x="331.25" y="531.5"/>
      <point x="338.75" y="560.75"/>
      <point x="346.0" y="583.75" type="curve"/>
      <point x="351.75" y="583.75" type="line"/>
      <point x="359.0" y="560.75"/>
      <point x="367.0" y="532.25"/>
      <point x="387.75" y="481.75" type="curve" smooth="yes"/>
      <point x="498.5" y="207.75" type="line"/>
      <point x="511.25" y="174.25" type="line"/>
      <point x="580.75" y="0.0" type="line"/>
      <point x="685.75" y="0.0" type="line"/>
      <point x="389.5" y="700.0" type="line"/>
      <point x="309.0" y="700.0" type="line"/>
    </contour>
    <contour>
      <point x="152.75" y="146.75" type="line"/>
      <point x="538.5" y="146.75" type="line"/>
      <point x="538.5" y="237.5" type="line"/>
      <point x="152.75" y="237.5" type="line"/>
    </contour>
  </outline>
</glyph>
<glyph name="D" format="2">
  <advance width="718.0"/>
  <unicode hex="0044"/>
  <anchor x="326.5" y="0.0" name="bottom"/>
  <anchor x="133.5" y="349.0" name="center"/>
  <anchor x="344.5" y="700.0" name="top"/>
  <outline>
    <contour>
      <point x="81.5" y="0.0" type="line"/>
      <point x="297.75" y="0.0" type="line" smooth="yes"/>
      <point x="520.25" y="0.0"/>
      <point x="676.75" y="132.5"/>
      <point x="676.75" y="349.0" type="curve" smooth="yes"/>
      <point x="676.75" y="567.5"/>
      <point x="520.25" y="700.0"/>
      <point x="297.75" y="700.0" type="curve" smooth="yes"/>
      <point x="81.5" y="700.0" type="line"/>
    </contour>
    <contour>
      <point x="178.0" y="90.75" type="line"/>
      <point x="178.0" y="609.25" type="line"/>
      <point x="299.0" y="609.25" type="line" smooth="yes"/>
      <point x="465.5" y="609.25"/>
      <point x="578.0" y="518.0"/>
      <point x="578.0" y="349.0" type="curve" smooth="yes"/>
      <point x="578.0" y="181.0"/>
      <point x="465.5" y="90.75"/>
      <point x="299.0" y="90.75" type="curve" smooth="yes"/>
    </contour>
  </outline>
</glyph>
<glyph name="underscore" format="2">
  <advance width="531.0"/>
  <unicode hex="005F"/>
  <outline>
    <contour>
      <point x="50.0" y="-73.75" type="line"/>
      <point x="481.0" y="-73.75" type="line"/>
      <point x="481.0" y="0.0" type="line"/>
      <point x="50.0" y="0.0" type="line"/>
    </contour>
  </outline>
</glyph>
<glyph name="r" format="2">
  <advance width="359.75"/>
  <unicode hex="0072"/>
  <anchor x="118.5" y="0.0" name="bottom"/>
  <anchor x="212.5" y="493.75" name="top"/>
  <outline>
    <contour>
      <point x="71.5" y="0.0" type="line"/>
      <point x="165.25" y="0.0" type="line"/>
      <point x="165.25" y="278.0" type="line" smooth="yes"/>
      <point x="165.25" y="365.0"/>
      <point x="227.25" y="408.25"/>
      <point x="322.25" y="408.25" type="curve" smooth="yes"/>
      <point x="348.0" y="408.25" type="line"/>
      <point x="350.0" y="499.75" type="line"/>
      <point x="341.75" y="500.5"/>
      <point x="333.75" y="500.75"/>
      <point x="326.25" y="500.75" type="curve" smooth="yes"/>
      <point x="237.5" y="500.75"/>
      <point x="187.0" y="468.0"/>
      <point x="167.0" y="417.0" type="curve"/>
      <point x="161.25" y="417.0" type="line"/>
      <point x="161.25" y="493.75" type="line"/>
      <point x="71.5" y="493.75" type="line"/>
    </contour>
  </outline>
</glyph>
<glyph name="bar" format="2">
  <advance width="247.5"/>
  <unicode hex="007C"/>
  <outline>
    <contour>
      <point x="85.25" y="-217.5" type="line"/>
      <point x="162.25" y="-217.5" type="line"/>
      <point x="162.25" y="900.0" type="line"/>
      <point x="85.25" y="900.0" type="line"/>
      <point x="85.25" y="21.25" type="line"/>
    </contour>
  </outline>
</glyph>
<glyph name="germandbls" format="2">
  <advance width="619.5"/>
  <unicode hex="00DF"/>
  <outline>
    <contour>
      <point x="344.0" y="-13.0" type="curve" smooth="yes"/>
      <point x="498.5" y="-13.0"/>
      <point x="572.0" y="86.5"/>
      <point x="572.0" y="193.0" type="curve" smooth="yes"/>
      <point x="572.0" y="273.0"/>
      <point x="500.0" y="360.25"/>
      <point x="385.0" y="366.5" type="curve"/>
      <point x="385.0" y="370.5" type="line"/>
      <point x="459.0" y="391.5"/>
      <point x="511.0" y="448.75"/>
      <point x="511.0" y="529.0" type="curve" smooth="yes"/>
      <point x="511.0" y="622.75"/>
      <point x="421.0" y="713.0"/>
      <point x="298.25" y="713.0" type="curve" smooth="yes"/>
      <point x="167.5" y="713.0"/>
      <point x="71.5" y="617.0"/>
      <point x="71.5" y="494.0" type="curve" smooth="yes"/>
      <point x="71.5" y="0.0" type="line"/>
      <point x="165.25" y="0.0" type="line"/>
      <point x="165.25" y="494.0" type="line" smooth="yes"/>
      <point x="165.25" y="575.0"/>
      <point x="219.5" y="625.25"/>
      <point x="294.25" y="625.25" type="curve" smooth="yes"/>
      <point x="364.25" y="625.25"/>
      <point x="416.0" y="581.75"/>
      <point x="416.0" y="510.75" type="curve" smooth="yes"/>
      <point x="416.0" y="428.5"/>
      <point x="355.5" y="395.5"/>
      <point x="259.25" y="391.75" type="curve"/>
      <point x="259.25" y="315.25" type="line"/>
      <point x="391.0" y="332.75"/>
      <point x="478.5" y="272.0"/>
      <point x="478.5" y="189.25" type="curve" smooth="yes"/>
      <point x="478.5" y="114.5"/>
      <point x="424.25" y="72.75"/>
      <point x="345.25" y="72.75" type="curve" smooth="yes"/>
      <point x="312.5" y="72.75"/>
      <point x="289.0" y="77.0"/>
      <point x="258.75" y="87.75" type="curve"/>
      <point x="258.75" y="3.25" type="line"/>
      <point x="280.75" y="-8.75"/>
      <point x="315.5" y="-13.0"/>
    </contour>
  </outline>
</glyph>
<glyph name="horncomb" format="2">
  <unicode hex="031B"/>
  <anchor x="180.0" y="493.75" name="_topright"/>
  <outline>
    <contour>
      <point x="163.5" y="417.5" type="curve" smooth="yes"/>
      <point x="231.75" y="417.5"/>
      <point x="295.25" y="461.75"/>
      <point x="295.25" y="541.5" type="curve" smooth="yes"/>
      <point x="295.25" y="573.0"/>
      <point x="290.25" y="591.5"/>
      <point x="285.25" y="606.5" type="curve"/>
      <point x="202.75" y="606.5" type="line"/>
      <point x="209.5" y="589.5"/>
      <point x="214.0" y="571.5"/>
      <point x="214.0" y="552.75" type="curve" smooth="yes"/>
      <point x="214.25" y="519.75"/>
      <point x="197.0" y="492.25"/>
      <point x="139.5" y="492.25" type="curve" smooth="yes"/>
      <point x="100.5" y="492.25"/>
      <point x="70.0" y="506.75"/>
      <point x="13.5" y="506.75" type="curve"/>
      <point x="2.0" y="432.5" type="line"/>
      <point x="101.0" y="432.5"/>
      <point x="96.0" y="417.5"/>
    </contour>
  </outline>
</glyph>
<glyph name="dong" format="2">
  <advance width="587.0"/>
  <unicode hex="20AB"/>
  <anchor x="282.25" y="39.9823" name="_bar"/>
  <outline>
    <contour>
      <point x="269.5" y="99.25" type="curve" smooth="yes"/>
      <point x="336.25" y="99.25"/>
      <point x="378.5" y="125.25"/>
      <point x="412.5" y="183.25" type="curve"/>
      <point x="418.5" y="183.25" type="line"/>
      <point x="418.5" y="109.25" type="line"/>
      <point x="508.25" y="109.25" type="line"/>
      <point x="508.25" y="700.0" type="line"/>
      <point x="414.5" y="700.0" type="line"/>
      <point x="414.5" y="451.75" type="line"/>
      <point x="407.75" y="451.75" type="line"/>
      <point x="376.0" y="507.5"/>
      <point x="331.5" y="534.0"/>
      <point x="269.5" y="534.0" type="curve" smooth="yes"/>
      <point x="144.75" y="534.0"/>
      <point x="50.0" y="444.75"/>
      <point x="50.0" y="314.5" type="curve" smooth="yes"/>
      <point x="50.0" y="187.75"/>
      <point x="144.75" y="99.25"/>
    </contour>
    <contour>
      <point x="276.75" y="180.0" type="curve" smooth="yes"/>
      <point x="203.0" y="180.0"/>
      <point x="143.75" y="235.0"/>
      <point x="143.75" y="315.5" type="curve" smooth="yes"/>
      <point x="143.75" y="398.25"/>
      <point x="203.0" y="453.25"/>
      <point x="276.75" y="453.25" type="curve" smooth="yes"/>
      <point x="359.5" y="453.25"/>
      <point x="415.25" y="395.25"/>
      <point x="415.25" y="314.5" type="curve" smooth="yes"/>
      <point x="415.25" y="237.25"/>
      <point x="359.5" y="180.0"/>
    </contour>
    <component base="strokeshortcomb" xScale="1.439125" yScale="0.9273" xOffset="282.25" yOffset="-285.5"/>
    <component base="strokeshortcomb" xScale="0.806025" yScale="0.927225" xOffset="434.75" yOffset="275.75"/>
  </outline>
</glyph>
<glyph name="guarani" format="2">
  <advance width="660.25"/>
  <unicode hex="20B2"/>
  <anchor x="378.0" y="653.0" name="_TopCurrency"/>
  <outline>
    <contour>
      <point x="370.5" y="28.75" type="curve" smooth="yes"/>
      <point x="478.5" y="28.75"/>
      <point x="565.0" y="68.5"/>
      <point x="627.0" y="130.75" type="curve"/>
      <point x="627.0" y="378.75" type="line"/>
      <point x="336.25" y="378.75" type="line"/>
      <point x="336.25" y="297.5" type="line"/>
      <point x="577.5" y="297.5" type="line"/>
      <point x="537.0" y="319.0" type="line"/>
      <point x="537.0" y="124.25" type="line"/>
      <point x="562.75" y="189.25" type="line"/>
      <point x="510.0" y="139.5"/>
      <point x="451.25" y="115.5"/>
      <point x="372.0" y="115.5" type="curve" smooth="yes"/>
      <point x="241.0" y="115.5"/>
      <point x="144.5" y="211.25"/>
      <point x="144.5" y="352.75" type="curve" smooth="yes"/>
      <point x="144.5" y="496.25"/>
      <point x="239.5" y="591.75"/>
      <point x="372.25" y="591.75" type="curve" smooth="yes"/>
      <point x="447.0" y="591.75"/>
      <point x="511.5" y="560.25"/>
      <point x="547.75" y="518.75" type="curve"/>
      <point x="615.0" y="576.75" type="line"/>
      <point x="554.25" y="646.5"/>
      <point x="471.0" y="678.5"/>
      <point x="370.5" y="678.5" type="curve" smooth="yes"/>
      <point x="191.0" y="678.5"/>
      <point x="48.75" y="541.0"/>
      <point x="48.75" y="352.75" type="curve" smooth="yes"/>
      <point x="48.75" y="162.75"/>
      <point x="191.5" y="28.75"/>
    </contour>
    <component base="verticalTopCurrencycomb" xOffset="378.0"/>
    <component base="verticalBottomCurrencycomb" xOffset="378.0"/>
  </outline>
</glyph>
<glyph name="hryvnia" format="2">
  <advance width="590.5"/>
  <unicode hex="20B4"/>
  <outline>
    <contour>
      <point x="313.25" y="27.0" type="curve" smooth="yes"/>
      <point x="419.75" y="27.0"/>
      <point x="506.5" y="64.25"/>
      <point x="563.5" y="154.0" type="curve"/>
      <point x="482.25" y="209.5" type="line"/>
      <point x="440.5" y="141.25"/>
      <point x="381.5" y="117.5"/>
      <point x="308.0" y="117.5" type="curve" smooth="yes"/>
      <point x="240.0" y="117.5"/>
      <point x="180.0" y="153.0"/>
      <point x="180.0" y="217.5" type="curve" smooth="yes"/>
      <point x="180.0" y="247.5"/>
      <point x="196.25" y="266.75"/>
      <point x="233.5" y="283.25" type="curve"/>
      <point x="91.25" y="287.5" type="line"/>
      <point x="83.0" y="269.0"/>
      <point x="78.5" y="247.5"/>
      <point x="78.5" y="221.75" type="curve" smooth="yes"/>
      <point x="78.5" y="101.0"/>
      <point x="177.75" y="27.0"/>
    </contour>
    <contour>
      <point x="17.75" y="254.0" type="line"/>
      <point x="572.5" y="254.0" type="line"/>
      <point x="572.5" y="329.25" type="line"/>
      <point x="17.75" y="329.25" type="line"/>
    </contour>
    <contour>
      <point x="17.75" y="375.75" type="line"/>
      <point x="572.5" y="375.75" type="line"/>
      <point x="572.5" y="451.0" type="line"/>
      <point x="17.75" y="451.0" type="line"/>
    </contour>
    <contour>
      <point x="359.25" y="418.25" type="curve"/>
      <point x="507.0" y="418.25" type="line"/>
      <point x="516.75" y="437.25"/>
      <point x="522.75" y="460.75"/>
      <point x="522.75" y="489.5" type="curve" smooth="yes"/>
      <point x="522.75" y="586.0"/>
      <point x="436.75" y="672.75"/>
      <point x="298.0" y="672.75" type="curve" smooth="yes"/>
      <point x="195.0" y="672.75"/>
      <point x="128.5" y="633.75"/>
      <point x="80.75" y="561.5" type="curve"/>
      <point x="160.75" y="508.5" type="line"/>
      <point x="195.5" y="564.75"/>
      <point x="243.5" y="583.25"/>
      <point x="302.25" y="583.25" type="curve" smooth="yes"/>
      <point x="377.25" y="583.25"/>
      <point x="422.0" y="542.5"/>
      <point x="422.0" y="497.0" type="curve" smooth="yes"/>
      <point x="422.0" y="455.0"/>
      <point x="397.0" y="433.5"/>
    </contour>
  </outline>
</glyph>
<glyph name="rightWhiteSmallTriangle" format="2">
  <advance width="307.25"/>
  <unicode hex="25B9"/>
  <outline>
    <contour>
      <point x="90.0" y="247.75" type="line"/>
      <point x="284.75" y="360.5" type="line"/>
      <point x="90.0" y="472.25" type="line"/>
    </contour>
    <contour>
      <point x="131.0" y="401.5" type="line"/>
      <point x="204.5" y="360.5" type="line"/>
      <point x="131.0" y="319.5" type="line"/>
    </contour>
  </outline>
</glyph>
<glyph name="whiteStar" format="2">
  <advance width="809.0"/>
  <unicode hex="2606"/>
  <outline>
    <contour>
      <point x="157.0" y="-13.0" type="line"/>
      <point x="404.0" y="167.0" type="line"/>
      <point x="651.0" y="-13.0" type="line"/>
      <point x="557.0" y="277.0" type="line"/>
      <point x="804.0" y="457.0" type="line"/>
      <point x="499.0" y="457.0" type="line"/>
      <point x="404.0" y="747.0" type="line"/>
      <point x="310.0" y="457.0" type="line"/>
      <point x="5.0" y="457.0" type="line"/>
      <point x="252.0" y="277.0" type="line"/>
    </contour>
    <contour>
      <point x="228.25" y="82.25" type="line"/>
      <point x="308.75" y="294.0" type="line"/>
      <point x="114.75" y="420.25" type="line"/>
      <point x="346.5" y="411.25" type="line"/>
      <point x="404.0" y="619.5" type="line"/>
      <point x="462.75" y="411.25" type="line"/>
      <point x="694.25" y="420.25" type="line"/>
      <point x="500.25" y="294.0" type="line"/>
      <point x="579.25" y="82.25" type="line"/>
      <point x="404.0" y="225.25" type="line"/>
    </contour>
  </outline>
</glyph>
<glyph name="heartWhiteSuit" format="2">
  <advance width="832.0"/>
  <unicode hex="2661"/>
  <outline>
    <contour>
      <point x="416.0" y="-13.0" type="curve"/>
      <point x="618.0" y="102.0"/>
      <point x="827.0" y="294.0"/>
      <point x="827.0" y="508.0" type="curve" smooth="yes"/>
      <point x="827.0" y="622.0"/>
      <point x="736.0" y="713.0"/>
      <point x="622.0" y="713.0" type="curve" smooth="yes"/>
      <point x="503.0" y="713.0"/>
      <point x="426.25" y="620.0"/>
      <point x="419.25" y="531.0" type="curve"/>
      <point x="412.75" y="531.0" type="line"/>
      <point x="405.75" y="621.0"/>
      <point x="329.0" y="713.0"/>
      <point x="210.0" y="713.0" type="curve" smooth="yes"/>
      <point x="96.0" y="713.0"/>
      <point x="5.0" y="622.0"/>
      <point x="5.0" y="508.0" type="curve" smooth="yes"/>
      <point x="5.0" y="294.0"/>
      <point x="214.0" y="102.0"/>
    </contour>
    <contour>
      <point x="416.0" y="57.75" type="curve"/>
      <point x="241.75" y="161.75"/>
      <point x="73.0" y="325.5"/>
      <point x="73.0" y="499.75" type="curve" smooth="yes"/>
      <point x="73.0" y="584.5"/>
      <point x="137.75" y="652.75"/>
      <point x="215.5" y="652.75" type="curve" smooth="yes"/>
      <point x="310.75" y="652.75"/>
      <point x="359.0" y="596.5"/>
      <point x="388.0" y="482.75" type="curve"/>
      <point x="444.0" y="482.75" type="line"/>
      <point x="470.25" y="596.25"/>
      <point x="510.0" y="652.75"/>
      <point x="616.75" y="652.75" type="curve" smooth="yes"/>
      <point x="694.5" y="652.75"/>
      <point x="759.25" y="584.5"/>
      <point x="759.25" y="499.75" type="curve" smooth="yes"/>
      <point x="759.25" y="325.5"/>
      <point x="590.25" y="161.75"/>
    </contour>
  </outline>
</glyph>
<glyph name="commaaccentcomb.loclMAH" format="2">
  <anchor x="0.0" y="0.0" name="_bottom"/>
  <outline>
    <contour>
      <point x="10.75" y="-220.75" type="curve" smooth="yes"/>
      <point x="69.75" y="-220.75"/>
      <point x="122.0" y="-184.0"/>
      <point x="122.0" y="-124.25" type="curve" smooth="yes"/>
      <point x="122.0" y="-64.5"/>
      <point x="65.5" y="-30.75"/>
      <point x="0.75" y="-41.5" type="curve"/>
      <point x="-19.0" y="-90.0" type="line"/>
      <point x="-15.75" y="-93.0" type="line"/>
      <point x="-9.0" y="-91.0"/>
      <point x="-1.5" y="-90.0"/>
      <point x="8.5" y="-90.0" type="curve" smooth="yes"/>
      <point x="34.0" y="-90.0"/>
      <point x="53.75" y="-101.75"/>
      <point x="53.75" y="-124.25" type="curve" smooth="yes"/>
      <point x="53.75" y="-145.25"/>
      <point x="39.0" y="-161.25"/>
      <point x="8.5" y="-161.25" type="curve" smooth="yes"/>
      <point x="-12.5" y="-161.25"/>
      <point x="-30.75" y="-152.75"/>
      <point x="-45.5" y="-136.75" type="curve"/>
      <point x="-81.0" y="-185.0" type="line"/>
      <point x="-54.25" y="-210.0"/>
      <point x="-26.5" y="-220.75"/>
    </contour>
  </outline>
</glyph>
<glyph name="euro.ss10" format="2">
  <advance width="563.0"/>
  <outline>
    <contour>
      <point x="368.0" y="27.0" type="curve" smooth="yes"/>
      <point x="426.0" y="27.0"/>
      <point x="476.25" y="37.25"/>
      <point x="521.5" y="59.0" type="curve"/>
      <point x="528.75" y="168.5" type="line"/>
      <point x="486.25" y="134.5"/>
      <point x="436.5" y="118.5"/>
      <point x="370.75" y="118.5" type="curve" smooth="yes"/>
      <point x="275.0" y="118.5"/>
      <point x="184.5" y="154.25"/>
      <point x="153.75" y="269.0" type="curve"/>
      <point x="146.75" y="286.75" type="line"/>
      <point x="137.75" y="326.25"/>
      <point x="138.25" y="373.5"/>
      <point x="147.25" y="416.0" type="curve"/>
      <point x="153.5" y="433.5" type="line"/>
      <point x="184.0" y="546.0"/>
      <point x="269.25" y="581.5"/>
      <point x="368.0" y="581.5" type="curve" smooth="yes"/>
      <point x="430.0" y="581.5"/>
      <point x="485.5" y="565.5"/>
      <point x="531.5" y="524.0" type="curve"/>
      <point x="531.5" y="633.75" type="line"/>
      <point x="485.5" y="660.5"/>
      <point x="429.75" y="673.0"/>
      <point x="368.0" y="673.0" type="curve" smooth="yes"/>
      <point x="186.0" y="673.0"/>
      <point x="41.25" y="552.25"/>
      <point x="41.25" y="349.0" type="curve" smooth="yes"/>
      <point x="41.25" y="146.0"/>
      <point x="189.5" y="27.0"/>
    </contour>
    <contour>
      <point x="96.0" y="236.25" type="line"/>
      <point x="454.0" y="236.25" type="line"/>
      <point x="454.0" y="311.75" type="line"/>
      <point x="96.0" y="311.75" type="line"/>
    </contour>
    <contour>
      <point x="96.0" y="387.75" type="line"/>
      <point x="454.0" y="387.75" type="line"/>
      <point x="454.0" y="463.25" type="line"/>
      <point x="96.0" y="463.25" type="line"/>
    </contour>
  </outline>
</glyph>
<glyph name="f_t.ss11" format="2">
  <advance width="659.0"/>
  <anchor x="368.5" y="0.0" name="caret_1"/>
  <outline>
    <contour>
      <point x="116.0" y="0.0" type="line"/>
      <point x="209.75" y="0.0" type="line"/>
      <point x="209.75" y="520.0" type="line" smooth="yes"/>
      <point x="209.75" y="586.25"/>
      <point x="252.0" y="626.75"/>
      <point x="320.5" y="626.75" type="curve" smooth="yes"/>
      <point x="388.25" y="626.75"/>
      <point x="429.25" y="587.0"/>
      <point x="429.25" y="522.0" type="curve" smooth="yes"/>
      <point x="429.25" y="0.0" type="line"/>
      <point x="523.0" y="0.0" type="line"/>
      <point x="523.0" y="519.0" type="line" smooth="yes"/>
      <point x="523.0" y="638.25"/>
      <point x="445.0" y="713.0"/>
      <point x="320.5" y="713.0" type="curve" smooth="yes"/>
      <point x="201.25" y="713.0"/>
      <point x="116.0" y="633.75"/>
      <point x="116.0" y="522.0" type="curve" smooth="yes"/>
    </contour>
    <contour>
      <point x="17.75" y="409.75" type="line"/>
      <point x="641.25" y="409.75" type="line"/>
      <point x="641.25" y="493.75" type="line"/>
      <point x="17.75" y="493.75" type="line"/>
    </contour>
  </outline>
</glyph>
<glyph name="guarani.tf" format="2">
  <advance width="596.0"/>
  <anchor x="321.0" y="653.0" name="_TopCurrency"/>
  <outline>
    <contour>
      <point x="326.25" y="28.75" type="curve" smooth="yes"/>
      <point x="429.5" y="28.75"/>
      <point x="515.75" y="68.5"/>
      <point x="577.75" y="130.75" type="curve"/>
      <point x="577.75" y="376.25" type="line"/>
      <point x="285.75" y="376.25" type="line"/>
      <point x="285.75" y="296.75" type="line"/>
      <point x="528.25" y="296.75" type="line"/>
      <point x="489.25" y="319.0" type="line"/>
      <point x="489.25" y="124.25" type="line"/>
      <point x="513.25" y="189.25" type="line"/>
      <point x="463.0" y="139.5"/>
      <point x="404.5" y="113.25"/>
      <point x="327.75" y="113.25" type="curve" smooth="yes"/>
      <point x="195.5" y="113.25"/>
      <point x="110.0" y="221.25"/>
      <point x="110.0" y="352.75" type="curve" smooth="yes"/>
      <point x="110.0" y="484.25"/>
      <point x="191.0" y="594.0"/>
      <point x="320.25" y="594.0" type="curve" smooth="yes"/>
      <point x="390.75" y="594.0"/>
      <point x="427.5" y="576.0"/>
      <point x="470.25" y="518.25" type="curve"/>
      <point x="540.0" y="573.5" type="line"/>
      <point x="475.75" y="653.25"/>
      <point x="421.5" y="678.5"/>
      <point x="318.75" y="678.5" type="curve" smooth="yes"/>
      <point x="140.0" y="678.5"/>
      <point x="14.25" y="531.75"/>
      <point x="14.25" y="352.75" type="curve" smooth="yes"/>
      <point x="14.25" y="174.5"/>
      <point x="143.0" y="28.75"/>
    </contour>
    <component base="verticalTopCurrencycomb" xOffset="321.0"/>
    <component base="verticalBottomCurrencycomb" xOffset="321.0"/>
  </outline>
</glyph>
<glyph name="hungarumlautcomb.case" format="2">
  <anchor x="0.0" y="700.0" name="_top"/>
  <outline>
    <contour>
      <point x="35.25" y="740.0" type="line"/>
      <point x="91.25" y="740.0" type="line"/>
      <point x="183.5" y="853.0" type="line"/>
      <point x="77.75" y="853.0" type="line"/>
    </contour>
    <contour>
      <point x="-91.25" y="740.0" type="line"/>
      <point x="-35.25" y="740.0" type="line"/>
      <point x="57.0" y="853.0" type="line"/>
      <point x="-48.75" y="853.0" type="line"/>
    </contour>
  </outline>
</glyph>
<glyph name="one.lf" format="2">
  <advance width="289.25"/>
  <outline>
    <contour>
      <point x="106.75" y="0.0" type="line"/>
      <point x="204.75" y="0.0" type="line"/>
      <point x="204.75" y="713.0" type="line"/>
      <point x="-17.5" y="623.25" type="line"/>
      <point x="17.0" y="536.5" type="line"/>
      <point x="104.25" y="573.25" type="line"/>
      <point x="106.75" y="569.75" type="line"/>
    </contour>
  </outline>
</glyph>
<glyph name="pi.ss10" format="2">
  <advance width="600.0"/>
  <outline>
    <contour>
      <point x="127.25" y="0.0" type="line"/>
      <point x="221.0" y="0.0" type="line"/>
      <point x="221.0" y="409.75" type="line"/>
      <point x="375.5" y="409.75" type="line"/>
      <point x="375.5" y="0.0" type="line"/>
      <point x="469.25" y="0.0" type="line"/>
      <point x="469.25" y="409.75" type="line"/>
      <point x="582.25" y="409.75" type="line"/>
      <point x="582.25" y="493.75" type="line"/>
      <point x="17.75" y="493.75" type="line"/>
      <point x="17.75" y="409.75" type="line"/>
      <point x="127.25" y="409.75" type="line"/>
    </contour>
  </outline>
</glyph>
<glyph name="t.ss10" format="2">
  <advance width="352.5"/>
  <anchor x="177.5" y="321.5" name="bar"/>
  <anchor x="169.75" y="0.0" name="bottom"/>
  <anchor x="170.25" y="276.0" name="center"/>
  <anchor x="169.75" y="610.0" name="top"/>
  <anchor x="276.0" y="740.0" name="topright"/>
  <outline>
    <contour>
      <point x="122.75" y="0.0" type="line"/>
      <point x="216.5" y="0.0" type="line"/>
      <point x="216.5" y="610.0" type="line"/>
      <point x="122.75" y="610.0" type="line"/>
    </contour>
    <contour>
      <point x="17.75" y="409.75" type="line"/>
      <point x="334.75" y="409.75" type="line"/>
      <point x="334.75" y="493.75" type="line"/>
      <point x="17.75" y="493.75" type="line"/>
    </contour>
  </outline>
</glyph>
<glyph name="three.numr" format="2">
  <advance width="325.5"/>
  <outline>
    <contour>
      <point x="156.25" y="308.0" type="curve" smooth="yes"/>
      <point x="228.75" y="308.0"/>
      <point x="285.25" y="350.5"/>
      <point x="285.25" y="427.75" type="curve" smooth="yes"/>
      <point x="285.25" y="474.75"/>
      <point x="258.5" y="509.25"/>
      <point x="222.25" y="522.75" type="curve"/>
      <point x="222.25" y="523.75" type="line"/>
      <point x="258.75" y="540.75"/>
      <point x="277.0" y="571.75"/>
      <point x="277.0" y="601.0" type="curve" smooth="yes"/>
      <point x="277.0" y="664.25"/>
      <point x="228.75" y="706.25"/>
      <point x="156.25" y="706.25" type="curve" smooth="yes"/>
      <point x="91.25" y="706.25"/>
      <point x="27.5" y="672.5"/>
      <point x="30.25" y="584.0" type="curve"/>
      <point x="90.0" y="584.0" type="line"/>
      <point x="88.0" y="633.5"/>
      <point x="119.25" y="652.0"/>
      <point x="156.5" y="652.0" type="curve" smooth="yes"/>
      <point x="194.5" y="652.0"/>
      <point x="216.5" y="629.5"/>
      <point x="216.5" y="594.75" type="curve" smooth="yes"/>
      <point x="216.5" y="556.25"/>
      <point x="183.0" y="539.25"/>
      <point x="144.5" y="539.25" type="curve" smooth="yes"/>
      <point x="101.0" y="539.25" type="line"/>
      <point x="101.0" y="486.75" type="line"/>
      <point x="143.75" y="486.75" type="line" smooth="yes"/>
      <point x="186.75" y="486.75"/>
      <point x="224.0" y="470.0"/>
      <point x="224.0" y="427.0" type="curve" smooth="yes"/>
      <point x="224.0" y="390.75"/>
      <point x="203.75" y="362.25"/>
      <point x="156.25" y="362.25" type="curve" smooth="yes"/>
      <point x="118.25" y="362.25"/>
      <point x="87.5" y="385.5"/>
      <point x="89.5" y="435.0" type="curve"/>
      <point x="28.25" y="435.0" type="line"/>
      <point x="25.0" y="345.75"/>
      <point x="90.5" y="308.0"/>
    </contour>
  </outline>
</glyph>
<glyph name="zero.tf" format="2">
  <advance width="596.0"/>
  <outline>
    <contour>
      <point x="298.0" y="-13.0" type="curve" smooth="yes"/>
      <point x="443.25" y="-12.25"/>
      <point x="547.5" y="96.25"/>
      <point x="547.5" y="244.0" type="curve" smooth="yes"/>
      <point x="547.5" y="463.0" type="line" smooth="yes"/>
      <point x="547.5" y="601.75"/>
      <point x="443.25" y="711.75"/>
      <point x="298.0" y="711.0" type="curve" smooth="yes"/>
      <point x="152.75" y="710.25"/>
      <point x="48.5" y="601.75"/>
      <point x="48.5" y="459.25" type="curve" smooth="yes"/>
      <point x="48.5" y="238.75" type="line" smooth="yes"/>
      <point x="48.5" y="96.25"/>
      <point x="152.75" y="-13.75"/>
    </contour>
    <contour>
      <point x="298.0" y="77.25" type="curve" smooth="yes"/>
      <point x="209.75" y="77.25"/>
      <point x="150.75" y="145.0"/>
      <point x="150.75" y="251.75" type="curve" smooth="yes"/>
      <point x="150.75" y="454.25" type="line" smooth="yes"/>
      <point x="150.75" y="557.5"/>
      <point x="209.75" y="620.75"/>
      <point x="298.0" y="620.75" type="curve" smooth="yes"/>
      <point x="386.25" y="620.75"/>
      <point x="445.25" y="555.25"/>
      <point x="445.25" y="450.5" type="curve" smooth="yes"/>
      <point x="445.25" y="247.25" type="line" smooth="yes"/>
      <point x="445.25" y="142.75"/>
      <point x="386.25" y="77.25"/>
    </contour>
  </outline>
</glyph>
<glyph name="zero.zero" format="2">
  <advance width="614.0"/>
  <outline>
    <contour>
      <point x="124.5" y="115.25" type="line"/>
      <point x="194.25" y="68.25" type="line"/>
      <point x="476.5" y="595.25" type="line"/>
      <point x="402.5" y="638.75" type="line"/>
    </contour>
    <component base="zero"/>
  </outline>
</glyph>
